<svg xmlns="http://www.w3.org/2000/svg">

    <symbol id="avatar" viewBox="0 0 512 512">
        <circle cx="256" cy="256" r="256" fill="#F57C00" />
        <path
            d="M256 0C114.688 0 0 114.688 0 256C0 397.312 114.688 512 256 512C397.312 512 512 397.312 512 256C512 114.688 397.312 0 256 0ZM256 76.8C298.496 76.8 332.8 111.104 332.8 153.6C332.8 196.096 298.496 230.4 256 230.4C213.504 230.4 179.2 196.096 179.2 153.6C179.2 111.104 213.504 76.8 256 76.8ZM256 440.32C192 440.32 135.424 407.552 102.4 357.888C103.168 306.944 204.8 279.04 256 279.04C306.944 279.04 408.832 306.944 409.6 357.888C376.576 407.552 320 440.32 256 440.32Z"
            fill="#FFE0B2" />
    </symbol>


    <symbol id="send" viewBox="0 0 512 439">
        <path d="M0.243809 438.857L512 219.429L0.243809 0L0 170.667L365.714 219.429L0 268.19L0.243809 438.857Z" />
    </symbol>

</svg>